<svg width="220" height="277" viewBox="0 0 220 277" fill="none" xmlns="http://www.w3.org/2000/svg">
<path d="M46.1377 222.504C46.0295 222.43 45.9159 222.371 45.797 222.326L45.7757 222.381L45.7917 222.34L45.7521 222.324C43.5723 221.492 40.1202 224.316 37.8 228.932C35.3228 233.84 35.0513 238.919 37.1785 240.275C37.2966 240.353 37.43 240.42 37.5588 240.469C39.7386 241.302 43.1907 238.478 45.5109 233.862C47.9934 228.94 48.265 223.861 46.1377 222.504ZM53.0771 239.408C52.805 239.08 52.4857 238.846 52.1092 238.702L52.0695 238.687C50.1017 237.983 46.904 239.785 44.2293 243.337C41.028 247.585 39.7954 252.713 41.4853 254.798C41.7574 255.126 42.0767 255.36 42.4533 255.504C44.415 256.253 47.6478 254.449 50.3431 250.872C53.5344 246.621 54.7571 241.49 53.0771 239.408ZM34.9925 252.653C34.5634 245.515 34.2491 242.771 31.0984 241.567C27.9476 240.364 25.8687 242.209 20.7942 247.228C16.4521 251.519 11.521 250.131 8.64664 254.088C8.11017 254.778 7.66593 255.584 7.31926 256.492C5.94857 260.079 6.90009 263.77 9.43655 264.739C12.5873 265.943 18.1575 264.232 21.9028 265.663C25.648 267.094 28.6384 272.076 31.7891 273.28C34.3256 274.249 37.4859 272.129 38.8566 268.542C39.2033 267.635 39.3998 266.734 39.4607 265.862C39.9624 260.983 35.3666 258.747 34.9925 252.653ZM27.022 236.427C27.1508 236.476 27.2948 236.515 27.4343 236.536C29.9341 236.948 33.1087 232.978 34.5356 227.668C35.8803 222.663 35.1855 218.271 33.0156 217.442C32.8868 217.393 32.7428 217.354 32.6033 217.332C30.1035 216.921 26.9289 220.891 25.502 226.2C24.1627 231.191 24.8521 235.598 27.022 236.427ZM14.5453 244.504C17.1951 244.077 19.696 239.434 20.1428 234.134C20.5196 229.671 19.3135 226.171 17.3517 225.421C16.9752 225.278 16.5812 225.239 16.1597 225.302C13.5099 225.729 11.009 230.372 10.5622 235.672C10.1854 240.135 11.3915 243.635 13.3533 244.385C13.7298 244.529 14.1238 244.567 14.5453 244.504Z" fill="#FFAA59" fill-opacity="0.7"/>
<path d="M106.138 42.5038C106.029 42.4305 105.916 42.3711 105.797 42.3257L105.776 42.3815L105.792 42.3396L105.752 42.3245C103.572 41.4916 100.12 44.3155 97.8 48.9317C95.3228 53.8398 95.0513 58.9188 97.1785 60.2755C97.2966 60.3526 97.43 60.4196 97.5588 60.4688C99.7386 61.3017 103.191 58.4777 105.511 53.8616C107.993 48.9395 108.265 43.8605 106.138 42.5038ZM113.077 59.408C112.805 59.08 112.486 58.846 112.109 58.7022L112.07 58.687C110.102 57.9831 106.904 59.7845 104.229 63.3375C101.028 67.585 99.7954 72.7127 101.485 74.798C101.757 75.1259 102.077 75.3599 102.453 75.5038C104.415 76.2534 107.648 74.4493 110.343 70.8723C113.534 66.621 114.757 61.4895 113.077 59.408ZM94.9925 72.6531C94.5634 65.5148 94.2491 62.7713 91.0984 61.5674C87.9476 60.3635 85.8687 62.2085 80.7942 67.2279C76.4521 71.5194 71.521 70.1311 68.6466 74.0876C68.1102 74.7784 67.6659 75.5845 67.3193 76.4918C65.9486 80.079 66.9001 83.7698 69.4366 84.739C72.5873 85.9429 78.1575 84.2322 81.9028 85.6632C85.648 87.0943 88.6384 92.076 91.7891 93.2799C94.3256 94.249 97.4859 92.1294 98.8566 88.5421C99.2033 87.6348 99.3998 86.7341 99.4607 85.8616C99.9624 80.9825 95.3666 78.7466 94.9925 72.6531ZM87.022 56.4267C87.1508 56.4759 87.2948 56.5149 87.4343 56.5362C89.9341 56.9475 93.1087 52.9778 94.5356 47.6684C95.8803 42.6635 95.1855 38.271 93.0156 37.4419C92.8868 37.3927 92.7428 37.3537 92.6033 37.3324C90.1035 36.921 86.9289 40.8908 85.502 46.2002C84.1627 51.1911 84.8521 55.5976 87.022 56.4267ZM74.5453 64.5043C77.1951 64.0772 79.696 59.434 80.1428 54.1341C80.5196 49.6711 79.3135 46.171 77.3517 45.4214C76.9752 45.2776 76.5812 45.239 76.1597 45.3019C73.5099 45.729 71.009 50.3722 70.5622 55.6721C70.1854 60.1351 71.3915 63.6352 73.3533 64.3848C73.7298 64.5286 74.1238 64.5672 74.5453 64.5043Z" fill="#FFAA59" fill-opacity="0.7"/>
<path d="M117.138 153.504C117.029 153.43 116.916 153.371 116.797 153.326L116.776 153.381L116.792 153.34L116.752 153.324C114.572 152.492 111.12 155.316 108.8 159.932C106.323 164.84 106.051 169.919 108.178 171.275C108.297 171.353 108.43 171.42 108.559 171.469C110.739 172.302 114.191 169.478 116.511 164.862C118.993 159.94 119.265 154.861 117.138 153.504ZM124.077 170.408C123.805 170.08 123.486 169.846 123.109 169.702L123.07 169.687C121.102 168.983 117.904 170.785 115.229 174.337C112.028 178.585 110.795 183.713 112.485 185.798C112.757 186.126 113.077 186.36 113.453 186.504C115.415 187.253 118.648 185.449 121.343 181.872C124.534 177.621 125.757 172.49 124.077 170.408ZM105.992 183.653C105.563 176.515 105.249 173.771 102.098 172.567C98.9476 171.364 96.8687 173.209 91.7942 178.228C87.4521 182.519 82.521 181.131 79.6466 185.088C79.1102 185.778 78.6659 186.584 78.3193 187.492C76.9486 191.079 77.9001 194.77 80.4366 195.739C83.5873 196.943 89.1575 195.232 92.9028 196.663C96.648 198.094 99.6384 203.076 102.789 204.28C105.326 205.249 108.486 203.129 109.857 199.542C110.203 198.635 110.4 197.734 110.461 196.862C110.962 191.983 106.367 189.747 105.992 183.653ZM98.022 167.427C98.1508 167.476 98.2948 167.515 98.4343 167.536C100.934 167.948 104.109 163.978 105.536 158.668C106.88 153.663 106.186 149.271 104.016 148.442C103.887 148.393 103.743 148.354 103.603 148.332C101.104 147.921 97.9289 151.891 96.502 157.2C95.1627 162.191 95.8521 166.598 98.022 167.427ZM85.5453 175.504C88.1951 175.077 90.696 170.434 91.1428 165.134C91.5196 160.671 90.3135 157.171 88.3517 156.421C87.9752 156.278 87.5812 156.239 87.1597 156.302C84.5099 156.729 82.009 161.372 81.5622 166.672C81.1854 171.135 82.3915 174.635 84.3533 175.385C84.7298 175.529 85.1238 175.567 85.5453 175.504Z" fill="#FFAA59" fill-opacity="0.7"/>
<path d="M206.138 10.5038C206.029 10.4305 205.916 10.3711 205.797 10.3257L205.776 10.3815L205.792 10.3396L205.752 10.3245C203.572 9.49158 200.12 12.3155 197.8 16.9317C195.323 21.8398 195.051 26.9188 197.178 28.2755C197.297 28.3526 197.43 28.4196 197.559 28.4688C199.739 29.3017 203.191 26.4777 205.511 21.8616C207.993 16.9395 208.265 11.8605 206.138 10.5038ZM213.077 27.408C212.805 27.08 212.486 26.846 212.109 26.7022L212.07 26.687C210.102 25.9831 206.904 27.7845 204.229 31.3375C201.028 35.585 199.795 40.7127 201.485 42.798C201.757 43.1259 202.077 43.3599 202.453 43.5038C204.415 44.2534 207.648 42.4493 210.343 38.8723C213.534 34.621 214.757 29.4895 213.077 27.408ZM194.992 40.6531C194.563 33.5148 194.249 30.7713 191.098 29.5674C187.948 28.3635 185.869 30.2085 180.794 35.2279C176.452 39.5194 171.521 38.1311 168.647 42.0876C168.11 42.7784 167.666 43.5845 167.319 44.4918C165.949 48.079 166.9 51.7698 169.437 52.739C172.587 53.9429 178.158 52.2322 181.903 53.6632C185.648 55.0943 188.638 60.076 191.789 61.2799C194.326 62.249 197.486 60.1294 198.857 56.5421C199.203 55.6348 199.4 54.7341 199.461 53.8616C199.962 48.9825 195.367 46.7466 194.992 40.6531ZM187.022 24.4267C187.151 24.4759 187.295 24.5149 187.434 24.5362C189.934 24.9475 193.109 20.9778 194.536 15.6684C195.88 10.6635 195.186 6.27101 193.016 5.44191C192.887 5.3927 192.743 5.35365 192.603 5.33235C190.104 4.92105 186.929 8.8908 185.502 14.2002C184.163 19.1911 184.852 23.5976 187.022 24.4267ZM174.545 32.5043C177.195 32.0772 179.696 27.434 180.143 22.1341C180.52 17.6711 179.314 14.171 177.352 13.4214C176.975 13.2776 176.581 13.239 176.16 13.3019C173.51 13.729 171.009 18.3722 170.562 23.6721C170.185 28.1351 171.391 31.6352 173.353 32.3848C173.73 32.5286 174.124 32.5672 174.545 32.5043Z" fill="#FFAA59" fill-opacity="0.7"/>
</svg>
